# xmcd CD database file
#
# Track frame offsets:
#	150
#	23926
#	53525
#	75644
#	107846
#	134607
#	157130
#	188177
#	220467
#	252104
#	279295
#	315887
#
# Disc length: 4518 seconds
#
# Revision: 0
# Processed by: cddbd v1.5.1PL0 Copyright (c) Steve Scherf et al.
# Submitted via: CDex 1.50
#
DISCID=a211a40c
DTITLE=Various Artist - Some of My Friends are Blues vol.1
DYEAR=2004
DGENRE=Blues
TTITLE0=Phil Guy - Is It Him or Me?
TTITLE1=Peter Malick - Blues for Otis
TTITLE2=Otis Grand - Careless Living
TTITLE3=Mighty Sam Mcclain - Don't Worry About Me
TTITLE4=Kay Reed - I Love You More Than You'll Ever Know
TTITLE5=Sven Zetterberg/Chicago Express - Sweet Woman's Love
TTITLE6=Joe Bonamassa - Reconsider Baby
TTITLE7=Aron Burton - The Woman I Met Out in the Rain
TTITLE8=Michael Burks - Make It Rain
TTITLE9=Billy Branch - If Heartaches Were Nickels
TTITLE10=Terry Evans - Blues No More
TTITLE11=Roy Buchanan - Wayfaring Pilgrim
EXTD=YEAR: 2004
EXTT0=
EXTT1=
EXTT2=
EXTT3=
EXTT4=
EXTT5=
EXTT6=
EXTT7=
EXTT8=
EXTT9=
EXTT10=
EXTT11=
PLAYORDER=
